<svg width="155" height="38" viewBox="0 0 155 38" fill="none" xmlns="http://www.w3.org/2000/svg">
<path d="M45.16 22.17V18.84H50.05C50.69 18.84 51.27 18.71 51.79 18.45C52.31 18.19 52.72 17.82 53.02 17.34C53.32 16.84 53.47 16.24 53.47 15.54C53.47 14.86 53.32 14.27 53.02 13.77C52.72 13.27 52.31 12.89 51.79 12.63C51.27 12.37 50.69 12.24 50.05 12.24H45.16V8.91H50.47C51.81 8.91 53.01 9.18 54.07 9.72C55.15 10.26 56 11.03 56.62 12.03C57.24 13.01 57.55 14.18 57.55 15.54C57.55 16.9 57.24 18.08 56.62 19.08C56 20.06 55.15 20.82 54.07 21.36C53.01 21.9 51.81 22.17 50.47 22.17H45.16ZM42.16 30V8.91H46.24V30H42.16ZM60.2263 30V15.51H64.1863V30H60.2263ZM62.2063 13.17C61.5663 13.17 61.0363 12.96 60.6163 12.54C60.1963 12.1 59.9863 11.56 59.9863 10.92C59.9863 10.3 60.1963 9.77 60.6163 9.33C61.0363 8.89 61.5663 8.67 62.2063 8.67C62.8663 8.67 63.3963 8.89 63.7963 9.33C64.2163 9.77 64.4263 10.3 64.4263 10.92C64.4263 11.56 64.2163 12.1 63.7963 12.54C63.3963 12.96 62.8663 13.17 62.2063 13.17ZM76.7277 30L72.9177 24.12L72.1077 23.52L66.4677 15.51H71.1177L74.6277 20.82L75.3777 21.39L81.3477 30H76.7277ZM66.1677 30L72.0777 21.72L74.3277 24.39L70.6077 30H66.1677ZM75.5277 23.49L73.2177 20.85L76.6677 15.51H81.0777L75.5277 23.49ZM89.05 36.42C87.51 36.42 86.15 36.14 84.97 35.58C83.79 35.04 82.85 34.27 82.15 33.27L84.64 30.78C85.2 31.44 85.82 31.94 86.5 32.28C87.2 32.64 88.04 32.82 89.02 32.82C90.24 32.82 91.2 32.51 91.9 31.89C92.62 31.27 92.98 30.41 92.98 29.31V25.68L93.64 22.5L93.01 19.32V15.51H96.91V29.25C96.91 30.69 96.57 31.94 95.89 33C95.23 34.08 94.31 34.92 93.13 35.52C91.95 36.12 90.59 36.42 89.05 36.42ZM88.87 29.61C87.57 29.61 86.4 29.3 85.36 28.68C84.32 28.04 83.5 27.17 82.9 26.07C82.32 24.97 82.03 23.74 82.03 22.38C82.03 21.02 82.32 19.8 82.9 18.72C83.5 17.64 84.32 16.79 85.36 16.17C86.4 15.53 87.57 15.21 88.87 15.21C89.95 15.21 90.9 15.42 91.72 15.84C92.56 16.26 93.22 16.84 93.7 17.58C94.18 18.3 94.44 19.15 94.48 20.13V24.69C94.44 25.65 94.17 26.51 93.67 27.27C93.19 28.01 92.53 28.59 91.69 29.01C90.87 29.41 89.93 29.61 88.87 29.61ZM89.65 26.04C90.37 26.04 90.99 25.89 91.51 25.59C92.05 25.27 92.47 24.84 92.77 24.3C93.07 23.74 93.22 23.11 93.22 22.41C93.22 21.69 93.07 21.06 92.77 20.52C92.47 19.98 92.05 19.56 91.51 19.26C90.99 18.94 90.37 18.78 89.65 18.78C88.93 18.78 88.3 18.94 87.76 19.26C87.22 19.56 86.8 19.99 86.5 20.55C86.2 21.09 86.05 21.71 86.05 22.41C86.05 23.09 86.2 23.71 86.5 24.27C86.8 24.81 87.22 25.24 87.76 25.56C88.3 25.88 88.93 26.04 89.65 26.04ZM107.293 30.3C105.773 30.3 104.423 29.98 103.243 29.34C102.063 28.68 101.123 27.78 100.423 26.64C99.743 25.5 99.403 24.2 99.403 22.74C99.403 21.3 99.733 20.02 100.393 18.9C101.073 17.76 101.993 16.86 103.153 16.2C104.313 15.52 105.603 15.18 107.023 15.18C108.423 15.18 109.653 15.5 110.713 16.14C111.793 16.76 112.633 17.62 113.233 18.72C113.853 19.8 114.163 21.03 114.163 22.41C114.163 22.67 114.143 22.94 114.103 23.22C114.083 23.48 114.033 23.78 113.953 24.12L101.773 24.15V21.21L112.123 21.18L110.533 22.41C110.493 21.55 110.333 20.83 110.053 20.25C109.793 19.67 109.403 19.23 108.883 18.93C108.383 18.61 107.763 18.45 107.023 18.45C106.243 18.45 105.563 18.63 104.983 18.99C104.403 19.33 103.953 19.82 103.633 20.46C103.333 21.08 103.183 21.82 103.183 22.68C103.183 23.56 103.343 24.33 103.663 24.99C104.003 25.63 104.483 26.13 105.103 26.49C105.723 26.83 106.443 27 107.263 27C108.003 27 108.673 26.88 109.273 26.64C109.873 26.38 110.393 26 110.833 25.5L113.143 27.81C112.443 28.63 111.583 29.25 110.563 29.67C109.563 30.09 108.473 30.3 107.293 30.3ZM126.344 30V21.69C126.344 20.83 126.074 20.13 125.534 19.59C124.994 19.05 124.294 18.78 123.434 18.78C122.874 18.78 122.374 18.9 121.934 19.14C121.494 19.38 121.144 19.72 120.884 20.16C120.644 20.6 120.524 21.11 120.524 21.69L118.994 20.91C118.994 19.77 119.234 18.78 119.714 17.94C120.214 17.08 120.894 16.41 121.754 15.93C122.634 15.45 123.624 15.21 124.724 15.21C125.784 15.21 126.734 15.48 127.574 16.02C128.414 16.54 129.074 17.23 129.554 18.09C130.034 18.93 130.274 19.84 130.274 20.82V30H126.344ZM116.594 30V15.51H120.524V30H116.594ZM133.439 30V15.51H137.399V30H133.439ZM135.419 13.17C134.779 13.17 134.249 12.96 133.829 12.54C133.409 12.1 133.199 11.56 133.199 10.92C133.199 10.3 133.409 9.77 133.829 9.33C134.249 8.89 134.779 8.67 135.419 8.67C136.079 8.67 136.609 8.89 137.009 9.33C137.429 9.77 137.639 10.3 137.639 10.92C137.639 11.56 137.429 12.1 137.009 12.54C136.609 12.96 136.079 13.17 135.419 13.17ZM149.941 30L146.131 24.12L145.321 23.52L139.681 15.51H144.331L147.841 20.82L148.591 21.39L154.561 30H149.941ZM139.381 30L145.291 21.72L147.541 24.39L143.821 30H139.381ZM148.741 23.49L146.431 20.85L149.881 15.51H154.291L148.741 23.49Z" fill="black"/>
<path fill-rule="evenodd" clip-rule="evenodd" d="M0 17.7778C0 11.2829 -2.05305e-07 8.03542 2.0177 6.0177C4.03542 4 7.28286 4 13.7778 4H17.2222C23.7171 4 26.9647 4 28.9822 6.0177C31 8.03542 31 11.2829 31 17.7778V21.2222C31 27.7171 31 30.9647 28.9822 32.9822C26.9647 35 23.7171 35 17.2222 35H13.7778C7.28286 35 4.03542 35 2.0177 32.9822C-2.05305e-07 30.9647 0 27.7171 0 21.2222V17.7778ZM25.8333 11.75C25.8333 13.1767 24.6767 14.3333 23.25 14.3333C21.8233 14.3333 20.6667 13.1767 20.6667 11.75C20.6667 10.3233 21.8233 9.16667 23.25 9.16667C24.6767 9.16667 25.8333 10.3233 25.8333 11.75ZM18.9444 21.2222C18.9444 23.1246 17.4024 24.6667 15.5 24.6667C13.5976 24.6667 12.0556 23.1246 12.0556 21.2222C12.0556 19.3199 13.5976 17.7778 15.5 17.7778C17.4024 17.7778 18.9444 19.3199 18.9444 21.2222ZM22.3889 21.2222C22.3889 25.0268 19.3046 28.1111 15.5 28.1111C11.6954 28.1111 8.61111 25.0268 8.61111 21.2222C8.61111 17.4177 11.6954 14.3333 15.5 14.3333C19.3046 14.3333 22.3889 17.4177 22.3889 21.2222Z" fill="#007AFF"/>
</svg>
